<!DOCTYPE svg PUBLIC "-//W3C//DTD SVG 1.1//EN" "http://www.w3.org/Graphics/SVG/1.1/DTD/svg11.dtd">

<svg xmlns="http://www.w3.org/2000/svg" viewBox="0 0 1024 1024">

<path fill="#e4fbfb" stroke="#e4fbfb" d="M375.04 387.287c-3.009 4.964-3.853 5.673-7.466 6.27-6.075 1.004-6.114 1.37-.448 4.193 2.858 1.424 8.216 5.438 11.907 8.92 8.109 7.65 8.139 7.655 6.388 1.08-1.877-7.05-1.858-7.183 1.579-11.097 3.785-4.311 3.764-4.467-.649-4.843-3.776-.321-4.425-.979-6.618-6.714l-1.302-3.405-3.391 5.596M339 409.425c0 .284 4.259 3.514 9.464 7.179 11.28 7.941 11.428 6.662-2.348 20.252-5.289 5.217-8.716 9.153-7.616 8.746 7.965-2.944 16.043-3.96 32-4.025 19.276-.078 25.196 1.037 37 6.968l7 3.517-7.2-6.817c-8.587-8.132-16.338-12.891-28.961-17.782-10.384-4.023-10.619-4.558-3.077-7.02 6.857-2.238 7.306-2.546 5.321-3.656-5.222-2.923-16.228-5.64-25.206-6.222-5.432-.353-11.339-.869-13.127-1.148-1.788-.279-3.25-.275-3.25.008m122.5 4.952c-18.118 8.545-17.631 33.604.827 42.539 17.643 8.541 39.713-11.524 32.27-29.338-5.476-13.105-20.55-19.118-33.097-13.201m-54.833.29c-.367.366-.667 1.491-.667 2.5 0 1.008-.45 1.833-1 1.833s-1 .7-1 1.556c0 .883-1.947 2.418-4.5 3.547-5.14 2.274-5.821 3.897-1.635 3.897 1.576 0 4.009.9 5.408 2 1.398 1.1 3.56 2 4.804 2 1.244 0 4.66 1.354 7.592 3.009 5.772 3.257 6.419 2.824 3.335-2.235-2.637-4.324-2.523-6.204.496-8.182 3.709-2.43 3.051-3.592-2.034-3.592-4.121 0-4.721-.318-6.599-3.5-2.062-3.495-2.944-4.09-4.2-2.833m-108.031 7.543c-9.122 15.459-8.58 49.627 1.08 68.054 12.487 23.818 36.952 30.477 69 18.78 8.766-3.199 21.512-6.6 27.6-7.363 7.142-.896 5.305-1.698-10.816-4.722-18.754-3.519-30.003-7.522-36.5-12.989-1.847-1.555-1.978-1.86-.5-1.17 3.254 1.52 14.09 3.117 28.431 4.191 36.672 2.746 57.459 16.873 71.753 48.763l3.472 7.746-.515-8.5c-1.947-32.167-14.212-54.933-35.013-64.991-11.134-5.383-20.726-6.806-49.128-7.283-30.953-.521-38.669-2.965-51.792-16.403-8.293-8.493-11.772-14.857-13.571-24.823l-.722-4-2.779 4.71m166.902 5.04c-5.345 4.673-4.959 13.303.75 16.784 5.963 3.636 12.088 2.007 15.218-4.045 5.085-9.834-7.661-20.002-15.968-12.739m55.665 29.947c-.904.904-1.202 13.144-1.199 49.253.003 46.201.08 48.176 1.993 51.313 2.612 4.284 8.087 6.95 11.66 5.677 5.847-2.083 6.157-3.562 6.59-31.44.343-22.081.637-25.969 2.195-29 5.413-10.53 16.473-14.17 26.031-8.569 7.97 4.671 7.985 4.758 8.332 48.319.345 43.32-.479 40.134 9.122 35.287 12.612-6.366 13.228-8.819 12.862-51.162L598.5 493.5l-2.736-5.571c-11.422-23.258-42.662-27.589-54.818-7.6l-1.772 2.914-.67-5.872c-.888-7.79-4.734-15.743-8.802-18.205-4.561-2.76-7.116-3.352-8.499-1.969m86.958 1.35c-1.556 3.414-1.645 92.041-.097 96.138 3.712 9.825 15.006 12.179 18.484 3.853 1.124-2.69 1.452-8.59 1.452-26.14 0-25.106.528-28.318 5.638-34.288 8.002-9.349 21.069-8.605 27.939 1.591 2.872 4.26 3.495 13.674 3.407 51.435-.081 34.497-.925 31.879 8.774 27.229 11.933-5.72 12.742-8.916 12.742-50.365v-33.5l-2.66-5.675c-11.806-25.183-42.672-28.593-56.531-6.246-1 1.613-1.204.877-1.272-4.579-.118-9.516-4.085-17.05-10.737-20.392-4.398-2.209-5.788-2.026-7.139.939m-115.11.402c-2.006 2.006-2.051 3.015-2.051 46.426 0 49.446-.002 49.42 4.509 54.203 5.921 6.278 13.469 3.739 15.551-5.231 1.24-5.345 1.175-71.829-.077-78.461-2.307-12.22-12.768-22.101-17.932-16.937m202.52-.378c-1.937 1.938-2.384 86.962-.492 93.773 3.305 11.903 16.028 15.133 18.898 4.798 1.629-5.865 1.261-79.729-.421-84.444-2.194-6.152-6.48-11.483-10.983-13.663-5.047-2.443-5.024-2.441-7.002-.464m-233.214 9.367c-5.479 2.348-5.353.943-5.401 60.535-.048 60.857-.197 62.832-5.038 66.527-10.123 7.729-11.412 12.412-5.006 18.188 11.787 10.628 30.332-.367 35.19-20.863 1.866-7.875 1.304-112.64-.625-116.369-3.338-6.455-13.158-10.573-19.12-8.018M418.767 534c-.583 25.82-2.181 33.141-9.811 44.946-17.322 26.801-46.595 34.632-65.023 17.395-10.814-10.116-13.322-24.851-4.988-29.311 3.223-1.725 4.308-1.23 2.612 1.193-5.163 7.37 1.668 18.716 11.772 19.554 11.532.957 19.787-9.154 19.883-24.35.17-27.101-36.862-38.086-60.124-17.835-18.97 16.515-20.326 46.944-3.105 69.691 33.35 44.056 98.13 36.347 128.508-15.294 17.493-29.735 14.519-52.539-10.302-78.989l-8.915-9.5-.507 22.5" fill-rule="evenodd"/>

<path fill="#deedf9" stroke="#deedf9" d="M375.177 387.724c-2.756 4.295-3.929 5.228-7.793 6.201l-4.549 1.145 4.832 2.539c2.658 1.396 7.925 5.542 11.704 9.214 5.568 5.41 6.763 6.203 6.298 4.177-2.204-9.607-2.085-10.976 1.256-14.423l3.2-3.301-3.934-.629c-3.543-.567-4.125-1.095-5.852-5.304l-1.918-4.674-3.244 5.055M340 409.511c0 .165 4.05 3.261 9 6.881 4.95 3.619 9 7.068 9 7.664 0 .596-4.422 5.552-9.827 11.014-5.404 5.461-9.567 9.925-9.25 9.918.318-.006 3.052-.721 6.077-1.587 3.529-1.011 11.414-1.757 22-2.082 19.37-.595 27.559.703 38.483 6.098 3.841 1.897 7.126 3.307 7.3 3.133.174-.174-3.132-3.27-7.347-6.88-7.978-6.835-18.484-12.841-29.217-16.701-3.454-1.243-6.525-2.655-6.823-3.138-.477-.771 4.141-3.178 10.076-5.25 5.025-1.755-13.543-7.572-24.274-7.605-4.234-.013-9.385-.416-11.448-.895-2.062-.479-3.75-.735-3.75-.57m123.275 4.143c-13.361 4.731-18.936 22.192-10.9 34.14 11.655 17.332 37.116 12.728 42.604-7.703 4.597-17.118-14.068-32.682-31.704-26.437m-57.872 5.297c-1.283 3.207-2.423 4.273-6.047 5.657-4.517 1.725-4.393 3.343.259 3.377 1.163.008 3.259.915 4.658 2.015 1.398 1.1 3.596 2.002 4.885 2.005 1.288.003 4.142 1.114 6.342 2.469 5.368 3.306 6.047 3.147 3.582-.842-2.626-4.248-2.657-7.792-.082-9.4 3.193-1.994 2.334-3.232-2.25-3.238-3.671-.006-4.482-.414-5.953-3-2.272-3.992-3.501-3.774-5.394.957M299.72 421c-5.97 8.388-8.927 38.8-5.289 54.4 5.254 22.526 20.382 36.761 41.654 39.197 7.601.87 18.085-1.033 32.415-5.884 6.6-2.235 16.485-5.027 21.966-6.205l9.967-2.143-6.467-1.291c-29.978-5.986-38.6-8.953-46.966-16.164l-3.5-3.017 4.002 1.948c4.521 2.199 14.298 3.784 28.998 4.699 36.349 2.263 59.81 18.395 73.029 50.216 2.378 5.725 2.387 5.732 2.429 2.093.164-14.155-7.331-40.413-14.337-50.232-14.224-19.933-25.571-24.22-67.621-25.551-20.479-.648-27.75-1.231-32-2.564-19.135-6.002-34.104-22.339-36.195-39.502l-.305-2.5-1.78 2.5m165.64 5.46c-8.24 5.772-3.437 19.54 6.817 19.54 7.791 0 13.435-9.252 9.793-16.055-2.384-4.455-12.265-6.528-16.61-3.485m55.247 32.122c-1.545 4.026-.64 94.545.979 97.958 3.27 6.89 11.821 9.013 16.13 4.004 2.242-2.607 2.284-3.097 2.29-26.85.006-27.739.48-30.443 6.364-36.327 9.397-9.397 22.664-7.713 28.38 3.603 2.215 4.385 2.25 5.041 2.25 42.242 0 22.248.377 37.788.917 37.788 5.284 0 14.969-7.097 18.425-13.5 2.997-5.555 3.904-64.703 1.137-74.219-7.808-26.861-42.585-34.529-56.572-12.473L538 485.392l-.01-6.446c-.011-7.732-3.067-15.151-7.924-19.237-3.599-3.029-8.505-3.613-9.459-1.127m87.724-.332c-1.434 2.275-1.717 90.298-.308 95.333 1.634 5.834 5.812 9.417 10.981 9.417 7.26 0 7.577-1.148 8.322-30.145.631-24.516.729-25.447 3.236-30.572 7.135-14.584 25.747-14.459 32.542.217 1.697 3.664 1.854 7.127 1.874 41.25.017 29.127.295 37.248 1.272 37.24 2.419-.019 11.281-4.734 13.928-7.411 5.263-5.322 6.013-9.691 6.54-38.079.731-39.426-.798-47.665-10.675-57.543-14.251-14.251-37.106-12.965-47.005 2.645l-2.776 4.377-.473-7.24c-.541-8.279-3.055-14.102-7.822-18.113-3.31-2.785-8.3-3.498-9.636-1.376m-115.081.412c-.976.394-1.25 11.047-1.25 48.539v48.034l3.882 3.883c5.423 5.423 10.445 5.018 13.608-1.098 1.274-2.464 1.51-9.241 1.51-43.311v-40.39l-3.054-6.111c-3.98-7.965-9.587-11.607-14.696-9.546m201.737 1.362c-.744 1.39-.989 16.017-.785 46.75.292 43.835.342 44.808 2.49 48.823 4.039 7.547 11.269 9.81 15.235 4.768 3.218-4.091 3.231-84.342.015-90.986-4.397-9.082-14.205-14.494-16.955-9.355m-232.03 8.023c-6.057 2.338-5.957 1.276-5.957 63.292 0 33.552-.389 57.553-.956 59.047-.527 1.383-3.195 4.225-5.931 6.315-8.579 6.552-8.672 13.933-.228 18.24 10.859 5.54 24.313-1.909 30.332-16.794 2.27-5.615 2.285-5.962 2.572-61.913.324-62.938.559-60.642-6.725-65.69-4.294-2.975-9.363-3.941-13.107-2.497m-43.974 64.12c-.012 13.062-.493 21.604-1.482 26.333-5.734 27.404-31.134 49.353-54.647 47.22-22.25-2.017-38.976-30.883-22.755-39.271 3.956-2.046 4.09-1.884 1.743 2.094-5.294 8.973 2.615 20.013 13.75 19.194 16.853-1.241 23.578-27.434 10.716-41.74-15.285-17-46.182-13.217-59.821 7.324-18.801 28.316-4.72 66.709 30.697 83.696 37.246 17.865 83.076-.89 103.827-42.49 13.657-27.379 10.437-47.796-11.267-71.424-4.852-5.282-9.254-9.753-9.783-9.936-.593-.206-.968 7.077-.978 19" fill-rule="evenodd"/>

<path fill="#3a5075" stroke="#3a5075" d="M375.283 387.851c-2.577 4.145-3.87 5.23-7.355 6.168l-4.228 1.139 5.058 2.889c2.782 1.589 7.754 5.384 11.048 8.434l5.989 5.545-.874-3.763c-1.516-6.53-1.099-9.467 1.766-12.458l2.687-2.805h-2.496c-3.504 0-5.627-1.881-7.154-6.339l-1.314-3.84-3.127 5.03m-33.284 22.86c.001.115 3.331 2.673 7.4 5.682 10.834 8.012 10.927 7.189-2.306 20.333l-8.014 7.96 4.865-1.261c20.277-5.26 51.511-3.029 63.83 4.558 5.241 3.228 4.778 2.391-1.96-3.545-7.94-6.994-16.856-12.259-28.06-16.572-10.382-3.995-10.686-4.9-2.659-7.901 7.12-2.663 6.943-2.861-5.71-6.393-7.171-2.002-27.389-4.114-27.386-2.861M467 412.926c-18.526 3.794-24.319 25.806-10.335 39.264 14.887 14.327 39.67 1.937 38.15-19.072-.962-13.296-14.28-22.965-27.815-20.192m-61.173 5.676c-.97 2.682-2.454 4.186-5.814 5.894l-4.511 2.293 4.132 1.113c2.273.612 4.699 1.794 5.391 2.628.691.833 1.981 1.292 2.866 1.018.885-.273 3.972.802 6.859 2.39s5.25 2.714 5.25 2.501c0-.212-1.009-2.461-2.241-4.999l-2.242-4.613 2.742-1.997c3.868-2.818 3.419-3.83-1.702-3.83-3.877 0-4.67-.383-6.216-3-2.283-3.865-2.93-3.778-4.514.602m-106.52 3.898c-5.834 11.186-8.065 33.966-4.945 50.5 4.82 25.546 22.238 41.072 46.138 41.128 9.567.023 14.263-.968 29.59-6.24 6.396-2.201 15.589-4.803 20.43-5.783l8.801-1.782-6.41-1.192c-26.776-4.979-37.669-8.814-45.929-16.167-4.241-3.776-4.294-3.885-.982-2.032 4.933 2.759 10.343 3.752 27.5 5.044 39.256 2.957 59.488 15.628 74.109 46.417 2.007 4.225 3.849 7.483 4.093 7.238.865-.865-2.912-23.132-5.351-31.549-6.403-22.095-21.02-36.867-41.751-42.192-2.255-.58-16.025-1.426-30.6-1.881-29.744-.929-38.036-2.365-47.801-8.277-12.15-7.356-22.331-20.873-23.992-31.852l-.814-5.38-2.086 4m168.081 2.48c-8.975 3.626-8.162 18.332 1.155 20.904 7.699 2.126 14.445-2.967 14.453-10.911.008-7.707-8.223-12.977-15.608-9.993m53.242 34.27c-1.364 5.092-.682 92.69.749 96.114 2.498 5.979 8.705 9.076 14.067 7.018 3.608-1.384 4.045-4.408 4.554-31.471l.5-26.589 2.734-3.911c8.722-12.478 25.491-12.132 32.014.66 1.575 3.088 1.749 7.243 1.75 41.746l.002 38.318 2.25-.679c10.12-3.054 17.031-10.185 18.743-19.342 1.39-7.433 1.299-58.64-.116-65.315-6.261-29.536-45.193-37.84-58.119-12.395-1.448 2.85-1.484 2.764-1.964-4.717-.769-11.971-7.186-21.687-14.325-21.687-1.473 0-2.441.767-2.839 2.25m88.037-1.583c-1.352 1.352-.693 96.659.686 99.143 3.318 5.98 11.048 7.88 15.192 3.735l2.455-2.454v-23.387c0-25.554.674-29.966 5.557-36.368 8.032-10.53 24.584-8.939 30.322 2.914 2.047 4.228 2.121 5.707 2.121 42.133v37.752l2.25-.696c7.889-2.439 13.076-6.284 16.106-11.939 3.365-6.278 3.875-69.135.632-77.802-9.595-25.646-44.289-30.51-55.92-7.839l-1.783 3.476-.49-7.634c-.584-9.093-3.718-16.058-8.752-19.451-3.265-2.2-7.045-2.915-8.376-1.583m-115.417 1.467c-.965.977-1.25 12.06-1.25 48.524v47.258l3.845 4.042c5.582 5.868 11.397 4.796 14.216-2.619 1.751-4.604 1.184-79.265-.642-84.624-3.03-8.892-12.521-16.277-16.169-12.581m202.417-.467c-1.505 1.504-.744 93.283.797 96.264 3.618 6.997 10.219 9.766 14.675 6.157l2.361-1.911v-86.834l-3.031-4.903c-4.329-7.001-12.017-11.558-14.802-8.773M462.225 468.99c-5.224 3.207-5.223 3.191-5.26 63.825-.04 63.247.451 59.012-7.536 65.035-6.043 4.558-7.218 9.583-3.246 13.893 11.477 12.457 31.725.437 35.726-21.208 1.401-7.578 1.503-106.612.115-111.452-2.481-8.651-13.226-14.128-19.799-10.093m-43.198 64.1c-.04 30.447-3.231 40.544-17.638 55.81-11.257 11.928-22.012 17.1-35.562 17.1-22.434 0-41.69-26.682-27.732-38.426 4.667-3.927 6.044-3.362 3.642 1.494-3.593 7.26 1.611 16.969 9.931 18.53 19.822 3.718 29.021-29.843 12.102-44.152-20.312-17.179-53.467-5.876-62.915 21.448-10.557 30.529 13.032 67.394 49.145 76.806 36.206 9.435 78.542-15.187 94.306-54.848 9.501-23.905 4.464-43.892-16.472-65.352l-8.78-9-.027 20.59" fill-rule="evenodd"/>

<path fill="#06255c" stroke="#06255c" d="M375.096 388.851c-1.984 3.092-4.029 5.149-5.118 5.149-4.917 0-4.989 1.241-.245 4.206 2.622 1.639 7.175 5.3 10.117 8.137l5.351 5.157-.69-3.5a231.912 231.912 0 0 0-1.178-5.627c-.329-1.433.55-3.309 2.693-5.75l3.181-3.623h-2.948c-3.296 0-5.54-2.073-6.928-6.399l-.931-2.9-3.304 5.15m-29.921 23.572c9.091 6.885 13.825 10.848 13.825 11.575 0 .485-3.937 4.962-8.75 9.949-4.812 4.987-8.408 9.064-7.989 9.06.418-.004 5.143-.727 10.5-1.607 18.247-2.998 40.278-.832 52.739 5.186l5 2.414-4.5-4.042c-6.764-6.077-14.901-11.277-22.6-14.442-15.395-6.33-15.406-6.336-14.785-7.956.33-.858 1.419-1.56 2.421-1.56 1.001 0 2.42-.599 3.152-1.33.731-.732 1.9-1.216 2.596-1.075.696.14.802.025.235-.255-.567-.281-.803-.88-.524-1.332.279-.452-.505-.599-1.744-.328-1.808.396-1.956.283-.751-.578 1.479-1.056-.982-1.666-4.75-1.177-.687.09-1.25-.287-1.25-.836 0-1.268-4.193-1.917-15.374-2.378-6.489-.267-8.492-.076-7.451.712m117.07 2.163c-4.831 2.113-10.627 8.407-12.019 13.054-7.924 26.449 26.673 42.486 41.148 19.074 11.427-18.483-8.946-40.953-29.129-32.128m-56.474 4.315c-1.263 3.215-2.542 4.542-5.774 5.989l-4.151 1.859 3.635.681c1.999.375 4.336 1.501 5.193 2.502.88 1.028 2.362 1.61 3.404 1.337 1.015-.265 3.945.691 6.51 2.124 5.833 3.26 5.786 3.269 3.401-.643-2.563-4.204-2.559-7.434.011-8.25 3.167-1.005 2.328-2.5-1.403-2.5-2.708 0-3.995-.738-6.303-3.615l-2.9-3.615-1.623 4.131M298.681 424c-3.91 9.135-5.099 16.374-5.092 31 .011 22.628 4.421 35.936 15.373 46.383 15.256 14.551 32.296 16.277 61.038 6.182 9.266-3.255 21.885-6.532 25.667-6.665 1.558-.055-1.217-.937-6.167-1.959-27.41-5.663-36.404-9.192-44.529-17.471-2.413-2.458-3.844-4.47-3.179-4.47.664 0 1.208.367 1.208.816 0 3.346 12.614 6.637 29.5 7.697 38.114 2.393 59.681 15.326 74.521 44.687l4.195 8.3-.709-8c-2.442-27.538-14.503-49.47-32.369-58.858-11.061-5.813-16.532-6.719-46.138-7.641-35.744-1.113-43.17-3.278-56.609-16.501-7.67-7.547-9.518-10.467-12.973-20.5l-2.239-6.5-1.498 3.5m165.822 2.25c-8.239 7.108-1.865 21.821 8.845 20.418 10.423-1.365 14.015-15.427 5.299-20.742-4.394-2.679-10.834-2.532-14.144.324m56.716 32.5c-1.632 3.972-.52 94.768 1.201 98.095 3.148 6.088 10.588 7.903 14.656 3.577 2.412-2.566 2.427-2.716 2.924-29.25.418-22.291.772-27.165 2.155-29.672 7.357-13.335 26.247-14.024 33.097-1.207 2.199 4.116 2.255 5.025 2.553 41.957.23 28.453.6 37.743 1.5 37.722.657-.016 3.891-1.478 7.186-3.25 11.4-6.131 12.424-11.018 11.57-55.222l-.561-29-2.922-5.274c-9.081-16.391-27.875-23.534-42.168-16.028-5.393 2.832-10.83 8.286-12.627 12.663-.968 2.359-1.211 1.734-2.286-5.902-1.588-11.274-4.295-16.223-10.697-19.554-3.545-1.844-4.712-1.772-5.581.345m87.981-.55c-1.89 1.89-1.704 93.925.198 97.602 2.912 5.631 7.945 8.127 12.546 6.221 4.654-1.928 5.056-4.254 5.062-29.32.006-26.198.427-28.641 6.029-35.006 8.952-10.17 23.939-8.509 29.974 3.321 1.883 3.691 1.991 5.934 1.991 41.442 0 42.744-.768 39.72 8.871 34.917 11.147-5.555 12.387-11.101 11.946-53.424L685.5 493.5l-2.813-5.34c-12.586-23.899-42.019-26.833-54.261-5.41-2.751 4.815-3.424 4.035-3.448-4-.031-10.295-4.145-18.342-10.639-20.811-3.183-1.211-3.693-1.185-5.139.261m-116 1c-2.259 2.259-1.66 92.462.643 96.816 2.831 5.352 8.114 7.898 11.621 5.6 5.495-3.601 5.67-5.176 5.339-48.034l-.303-39.229-3.018-5.899c-4.176-8.162-10.971-12.565-14.282-9.254m203 0c-.899.899-1.196 12.637-1.184 46.75.019 51.446-.034 51.087 8.139 55.494 4.218 2.274 8.085.686 9.89-4.061 1.696-4.463 1.223-80.373-.533-85.348-3.168-8.979-12.682-16.465-16.312-12.835m-235.554 11.252L458 472.905v57.079c0 64.615.348 61.614-7.83 67.489-7.207 5.178-8.226 9.625-3.328 14.523 9.218 9.218 25.118 2.939 32.478-12.826 2.15-4.606 2.184-5.461 2.461-62.727l.28-58.057-2.28-3.341c-4.718-6.913-14.181-9.184-19.135-4.593M420.005 527c-.2 35.285-4.375 48.546-20.208 64.189-10.756 10.625-19.188 14.311-32.743 14.311-12.472 0-16.344-1.525-24.751-9.745-9.155-8.952-11.623-19.283-6.37-26.661 3.603-5.06 9.814-5.69 6.519-.661-2.505 3.823-1.494 10.87 2.099 14.62 11.159 11.647 28.066-.209 27.882-19.553-.268-28.215-38.126-37.967-60.507-15.586-19.828 19.828-17.561 51.297 5.363 74.447 34.788 35.129 92.751 24.122 120.491-22.881 17.23-29.194 14.217-52.537-10.064-77.98l-7.635-8-.076 13.5" fill-rule="evenodd"/>

</svg>